PathFileType	4	(X/Y/Z)	s05c0302.trc
DataRate	CameraRate	NumFrames	NumMarkers	Units	OrigDataRate	OrigDataStartFrame	OrigNumFrames
200	200	5	49	mm	200	500	2000
Frame#	Time	racr			lacr			c7			jug			rlel			rdr			llel			ldr			s2			lic			ric			lasi			rasi			rpsi			lpsi			rgt			lgt			rth1			rth2			rth3			rth4			rlfc			rsh1			rsh2			rsh3			rsh4			rlmal			rmmal			rcal			rtoe			rmt5			lth1			lth2			lth4			lth3			llfc			lmfc			lsh1			lsh2			lsh3			lsh4			llmal			lmmal			lcal			ltoe			lmt5			SBIKE			LBIKE			RBIKE			
		X1	Y1	Z1	X2	Y2	Z2	X3	Y3	Z3	X4	Y4	Z4	X5	Y5	Z5	X6	Y6	Z6	X7	Y7	Z7	X8	Y8	Z8	X9	Y9	Z9	X10	Y10	Z10	X11	Y11	Z11	X12	Y12	Z12	X13	Y13	Z13	X14	Y14	Z14	X15	Y15	Z15	X16	Y16	Z16	X17	Y17	Z17	X18	Y18	Z18	X19	Y19	Z19	X20	Y20	Z20	X21	Y21	Z21	X22	Y22	Z22	X23	Y23	Z23	X24	Y24	Z24	X25	Y25	Z25	X26	Y26	Z26	X27	Y27	Z27	X28	Y28	Z28	X29	Y29	Z29	X30	Y30	Z30	X31	Y31	Z31	X32	Y32	Z32	X33	Y33	Z33	X34	Y34	Z34	X35	Y35	Z35	X36	Y36	Z36	X37	Y37	Z37	X38	Y38	Z38	X39	Y39	Z39	X40	Y40	Z40	X41	Y41	Z41	X42	Y42	Z42	X43	Y43	Z43	X44	Y44	Z44	X45	Y45	Z45	X46	Y46	Z46	X47	Y47	Z47	X48	Y48	Z48	X49	Y49	Z49	
500	2.5000	725.933685	1327.501195	-156.043824	734.278707	1317.154142	-448.978370	723.815030	1399.682570	-313.753292	673.823966	1245.626058	-298.936960	576.264154	1111.847821	-25.988574	706.859124	923.301629	-92.227293	541.170718	1109.684143	-570.700148	697.274222	931.588656	-479.908660	149.809467	1230.110928	-297.865443	307.854835	1199.294862	-428.621269	289.367392	1265.237838	-151.287904	344.395651	1146.192723	-380.263910	315.444444	1191.443728	-167.316959	186.665734	1279.914512	-263.860904	199.585321	1265.559006	-347.889503	233.389645	1136.926840	-106.609398	220.297471	1108.426425	-439.591677	329.858233	1066.898202	-84.580193	411.855983	1032.417448	-78.633381	463.762711	961.205950	-74.479140	433.515896	1058.409294	-93.952887	560.057175	854.183780	-93.357006	463.174796	808.690182	-72.447847	403.632753	745.019291	-88.963817	323.294353	717.278965	-95.779140	422.951842	721.659009	-112.996585	217.342514	641.757732	-109.850623	248.762828	655.233677	-186.295232	150.616722	677.863584	-155.139466	294.605447	420.624993	-162.557646	223.358391	490.489080	-93.156017	245.991595	976.101132	-458.555663	279.906088	897.775865	-454.698876	314.941275	901.449096	-441.865425	267.745158	807.748833	-452.511677	272.617947	668.268873	-418.083631	247.831399	657.839047	-315.227322	212.478772	556.884040	-452.986528	207.588077	470.409024	-442.155683	159.686643	395.607871	-444.908060	236.034772	463.367335	-417.167826	133.069105	283.556011	-437.662109	159.913738	304.326285	-367.392948	65.803621	264.686511	-399.955227	330.011232	131.312587	-399.588870	221.577137	148.775213	-465.204243	-169.346003	900.352266	-274.005098	-53.269362	79.141954	-474.594592	-53.246491	79.279744	-76.963724	
501	2.5050	725.955721	1327.109977	-153.811143	735.682925	1316.665085	-446.591912	725.030456	1399.213868	-311.537952	673.746688	1245.237184	-296.860919	576.304103	1111.638697	-25.375225	706.756445	923.840423	-92.204517	542.926728	1110.492110	-570.542847	697.812963	931.179703	-479.721634	149.988213	1233.046338	-301.268088	309.746570	1200.817829	-429.899109	287.556406	1268.310972	-153.240403	345.085167	1147.900159	-380.617826	313.206508	1194.206008	-168.630036	185.181295	1283.699480	-266.097599	200.441966	1268.039200	-351.025675	231.572876	1140.914783	-108.650051	221.602903	1110.368655	-441.418860	328.350518	1071.607610	-87.203432	410.603681	1038.239034	-80.195922	463.492200	967.592318	-76.153817	432.159116	1064.414768	-95.769297	562.129176	861.537103	-94.790752	465.753380	814.482938	-74.002289	407.497251	749.728594	-90.152764	327.767042	720.512563	-96.804246	427.291196	726.552543	-114.014740	222.921807	643.004985	-110.396046	253.858856	656.879652	-186.807712	155.607400	677.293525	-155.232897	305.865368	423.912777	-163.001210	232.529989	492.181426	-93.163945	246.838338	978.848179	-459.415327	279.925305	900.192319	-455.178920	314.759256	903.450118	-441.703023	266.847679	810.278773	-453.431271	269.137097	670.170366	-419.124598	243.597767	660.559436	-316.105745	207.969175	559.303282	-454.112825	202.881618	472.758829	-443.019878	154.842629	398.167213	-445.739729	231.516932	465.631671	-418.306363	127.984975	286.167657	-438.553664	154.458104	305.390669	-368.142366	60.338766	269.153673	-400.818054	320.687184	128.372187	-399.176196	213.027177	148.672248	-465.135896	-169.597645	900.380054	-273.388803	-53.287517	79.263678	-474.585460	-53.253639	79.292067	-76.956783	
502	2.5100	726.141625	1326.476291	-151.710252	736.907467	1316.007843	-444.272634	726.281676	1398.608342	-309.420419	673.588842	1244.894969	-295.030596	576.270268	1111.017782	-24.616906	706.680581	924.351344	-91.917256	544.508621	1111.136557	-570.301731	698.350199	930.804369	-479.590152	150.225010	1236.364383	-304.705062	311.279404	1202.703265	-431.233012	290.247706	1271.617263	-152.802653	345.381293	1149.782840	-380.985531	310.928599	1197.670030	-170.501594	185.407262	1287.168567	-270.304680	201.238481	1271.062475	-354.480004	229.598931	1145.278487	-110.827181	222.572772	1112.627561	-443.085317	326.494779	1076.266897	-89.664025	409.239477	1043.720528	-82.353897	462.625696	973.640389	-77.787115	430.462369	1070.301903	-97.500682	563.613205	868.750323	-96.231686	468.107013	820.096727	-75.755977	411.116475	754.136898	-91.508135	331.912530	723.412476	-97.874408	431.267425	731.026372	-115.010374	228.197498	643.641788	-111.048665	258.655690	657.929501	-187.369319	159.520765	676.199368	-155.970077	316.295478	426.832258	-162.622971	241.745494	493.019355	-93.242675	247.793073	981.729846	-460.024104	280.315247	902.826052	-455.436405	314.985133	905.939318	-441.439996	266.610807	813.014274	-453.880286	266.697639	672.445266	-420.111522	240.834735	663.343701	-316.852478	204.571400	562.051718	-455.157111	199.077948	475.579117	-443.926812	150.572270	401.212726	-446.336341	227.704850	468.242377	-419.311433	122.821912	289.296881	-439.395563	149.166968	307.017997	-368.778814	54.993619	273.975130	-401.424270	311.227407	126.049296	-399.037351	204.317874	149.061467	-465.079051	-169.734064	900.451775	-273.090979	-53.291696	79.356710	-474.564479	-53.263689	79.357324	-76.943559	
503	2.5150	726.352472	1325.504211	-149.541268	738.010716	1315.151006	-442.063296	727.430383	1397.738582	-307.427865	673.379859	1244.235243	-293.151106	576.029862	1110.753866	-23.635127	706.708430	924.925785	-91.695864	545.884800	1111.581374	-569.806526	698.794218	930.386150	-479.570784	150.407133	1240.000955	-307.820974	312.631208	1205.015708	-433.468933	287.814316	1274.933787	-155.054199	345.532385	1151.922525	-381.666791	309.042792	1201.159765	-172.138784	186.031149	1290.231624	-272.322188	201.718248	1274.508113	-358.093076	226.813177	1149.910657	-112.773444	223.223607	1115.259075	-444.797338	324.453525	1080.884813	-91.776645	407.396450	1048.939363	-84.449330	461.308179	979.585234	-79.421729	428.447820	1075.887058	-99.061679	564.346120	875.327624	-97.716752	469.959675	825.352806	-77.642208	414.287554	758.105286	-92.841546	335.702563	725.904304	-99.048958	434.893403	735.287503	-116.079513	233.010989	643.553076	-111.774903	263.204814	658.256441	-188.006112	163.375513	674.215109	-156.754021	327.205642	429.322117	-162.524546	250.784853	493.640788	-93.210176	248.680964	984.643408	-460.520900	280.986057	905.638591	-455.467902	315.535428	908.630436	-441.195612	267.077171	815.847264	-454.035416	265.432432	674.844289	-421.075458	239.559439	665.950293	-317.227313	202.118817	565.114457	-456.064968	195.873017	478.627118	-444.645998	146.710551	404.660935	-446.787792	224.604351	471.073521	-420.174342	117.563825	292.889575	-440.225119	144.065904	309.218858	-369.290006	49.595202	279.181510	-401.826699	301.690973	124.466842	-398.798985	195.458196	150.081115	-464.939405	-169.910583	900.492901	-273.072060	-53.296141	79.507001	-474.562085	-53.258969	79.395371	-76.931204	
504	2.5200	726.538440	1324.294232	-147.569279	738.975253	1314.183398	-439.927636	728.492969	1396.725258	-305.604607	673.041350	1243.482592	-291.462404	575.494306	1110.449841	-22.659012	706.808590	925.709171	-91.567039	547.079742	1111.852443	-569.205559	699.127038	930.007506	-479.604036	149.899704	1244.254936	-311.186587	313.554826	1207.285756	-434.755832	285.794896	1277.950754	-156.948361	345.282764	1154.201232	-382.250249	310.892357	1205.575379	-169.781437	187.044989	1293.865216	-275.333078	202.412757	1278.031281	-360.693388	224.144120	1155.015054	-114.556311	223.680173	1118.113852	-446.489812	321.888208	1085.414579	-94.039253	405.272651	1053.974954	-86.526353	459.953017	984.913066	-81.984225	426.184927	1081.220714	-100.704782	564.427000	881.527304	-98.665993	471.357086	830.110752	-79.659312	417.009748	761.625802	-94.209463	339.235316	727.601575	-100.486512	438.050101	739.121301	-117.210342	237.320729	642.833740	-112.719935	267.108800	657.968000	-188.808408	166.598170	671.276624	-157.607574	338.329862	431.833819	-162.667204	259.708478	493.688947	-93.284354	249.776148	987.448893	-461.090854	282.081865	908.491627	-455.576255	316.488914	911.631198	-440.940315	268.297666	818.622409	-454.476808	265.397848	677.276094	-421.870346	239.730019	668.329589	-317.299810	200.631857	568.226201	-456.725396	193.241425	481.915077	-445.248890	143.212933	408.600724	-447.380317	222.027654	473.968616	-420.934313	112.153783	296.872589	-440.965346	139.180503	312.003809	-369.663657	43.937511	284.670444	-402.105914	291.976827	123.462560	-398.741488	186.529149	151.643808	-464.786179	-169.897718	900.601277	-272.766442	-53.292438	79.661163	-474.560580	-53.247616	79.463757	-76.925297	
